<svg xmlns="http://www.w3.org/2000/svg">
    <symbol id="home" width="512" height="512" viewBox="0 0 24 24">
        <path d="m23.121 9.069-7.585-7.586a5.008 5.008 0 0 0-7.072 0L.879 9.069A2.978 2.978 0 0 0 0 11.19v9.817a3 3 0 0 0 3 3h18a3 3 0 0 0 3-3V11.19a2.978 2.978 0 0 0-.879-2.121ZM15 22.007H9v-3.934a3 3 0 0 1 6 0Zm7-1a1 1 0 0 1-1 1h-4v-3.934a5 5 0 0 0-10 0v3.934H3a1 1 0 0 1-1-1V11.19a1.008 1.008 0 0 1 .293-.707L9.878 2.9a3.008 3.008 0 0 1 4.244 0l7.585 7.586a1.008 1.008 0 0 1 .293.704Z" fill="currentColor"/>
    </symbol>
    <symbol id="user" width="512" height="512" viewBox="0 0 24 24">
        <path d="M12 12a6 6 0 1 0-6-6 6.006 6.006 0 0 0 6 6Zm0-10a4 4 0 1 1-4 4 4 4 0 0 1 4-4ZM12 14a9.01 9.01 0 0 0-9 9 1 1 0 0 0 2 0 7 7 0 0 1 14 0 1 1 0 0 0 2 0 9.01 9.01 0 0 0-9-9Z" fill="currentColor"/>
    </symbol>
    <symbol id="users" width="512" height="512" viewBox="0 0 24 24">
        <path d="M7.5 13A4.5 4.5 0 1 1 12 8.5 4.505 4.505 0 0 1 7.5 13zm0-7A2.5 2.5 0 1 0 10 8.5 2.5 2.5 0 0 0 7.5 6zM15 20a5.006 5.006 0 0 0-5-5H5a5.006 5.006 0 0 0-5 5v4h2v-4a3 3 0 0 1 3-3h5a3 3 0 0 1 3 3v4h2zm2.5-11A4.5 4.5 0 1 1 22 4.5 4.505 4.505 0 0 1 17.5 9zm0-7A2.5 2.5 0 1 0 20 4.5 2.5 2.5 0 0 0 17.5 2zM24 16a5.006 5.006 0 0 0-5-5h-4v2h4a3 3 0 0 1 3 3v4h2z" fill="currentColor"/>
    </symbol>
    <symbol id="settings" width="512" height="512" viewBox="0 0 24 24">
        <path d="M12 8a4 4 0 1 0 4 4 4 4 0 0 0-4-4Zm0 6a2 2 0 1 1 2-2 2 2 0 0 1-2 2Z" fill="currentColor"/>
        <path d="m21.294 13.9-.444-.256a9.1 9.1 0 0 0 0-3.29l.444-.256a3 3 0 1 0-3-5.2l-.445.257A8.977 8.977 0 0 0 15 3.513V3a3 3 0 0 0-6 0v.513a8.977 8.977 0 0 0-2.848 1.646L5.705 4.9a3 3 0 0 0-3 5.2l.444.256a9.1 9.1 0 0 0 0 3.29l-.444.256a3 3 0 1 0 3 5.2l.445-.257A8.977 8.977 0 0 0 9 20.487V21a3 3 0 0 0 6 0v-.513a8.977 8.977 0 0 0 2.848-1.646l.447.258a3 3 0 0 0 3-5.2Zm-2.548-3.776a7.048 7.048 0 0 1 0 3.75 1 1 0 0 0 .464 1.133l1.084.626a1 1 0 0 1-1 1.733l-1.086-.628a1 1 0 0 0-1.215.165 6.984 6.984 0 0 1-3.243 1.875 1 1 0 0 0-.751.969V21a1 1 0 0 1-2 0v-1.252a1 1 0 0 0-.751-.969A6.984 6.984 0 0 1 7.006 16.9a1 1 0 0 0-1.215-.165l-1.084.627a1 1 0 1 1-1-1.732l1.084-.626a1 1 0 0 0 .464-1.133 7.048 7.048 0 0 1 0-3.75 1 1 0 0 0-.465-1.129l-1.084-.626a1 1 0 0 1 1-1.733l1.086.628A1 1 0 0 0 7.006 7.1a6.984 6.984 0 0 1 3.243-1.875A1 1 0 0 0 11 4.252V3a1 1 0 0 1 2 0v1.252a1 1 0 0 0 .751.969A6.984 6.984 0 0 1 16.994 7.1a1 1 0 0 0 1.215.165l1.084-.627a1 1 0 1 1 1 1.732l-1.084.626a1 1 0 0 0-.463 1.129Z" fill="currentColor"/>
    </symbol>
    <symbol id="apps" width="512" height="512" viewBox="0 0 24 24">
        <path d="M11 11H0V3a3 3 0 0 1 3-3h8ZM2 9h7V2H3a1 1 0 0 0-1 1ZM24 11H13V0h8a3 3 0 0 1 3 3Zm-9-2h7V3a1 1 0 0 0-1-1h-6ZM11 24H3a3 3 0 0 1-3-3v-8h11Zm-9-9v6a1 1 0 0 0 1 1h6v-7ZM21 24h-8V13h11v8a3 3 0 0 1-3 3Zm-6-2h6a1 1 0 0 0 1-1v-6h-7Z" fill="currentColor"/>
    </symbol>
    <symbol id="sliders" width="512" height="512" viewBox="0 0 24 24">
        <path d="M10.931 2.75a3.728 3.728 0 0 0-7.195 0H0v2h3.736a3.728 3.728 0 0 0 7.195 0H24v-2ZM7.333 5.5a1.75 1.75 0 1 1 1.75-1.75 1.753 1.753 0 0 1-1.75 1.75ZM16.667 8.25A3.745 3.745 0 0 0 13.07 11H0v2h13.07a3.727 3.727 0 0 0 7.194 0H24v-2h-3.736a3.745 3.745 0 0 0-3.597-2.75Zm0 5.5a1.75 1.75 0 1 1 1.75-1.75 1.752 1.752 0 0 1-1.75 1.75ZM7.333 16.5a3.745 3.745 0 0 0-3.6 2.75H0v2h3.736a3.728 3.728 0 0 0 7.195 0H24v-2H10.931a3.745 3.745 0 0 0-3.598-2.75Zm0 5.5a1.75 1.75 0 1 1 1.75-1.75A1.753 1.753 0 0 1 7.333 22Z" fill="currentColor"/>
    </symbol>
    <symbol id="calendar" width="512" height="512" viewBox="0 0 24 24">
        <path d="M19 2h-1V1a1 1 0 1 0-2 0v1H8V1a1 1 0 1 0-2 0v1H5C2.243 2 0 4.243 0 7v12c0 2.757 2.243 5 5 5h4a1 1 0 1 0 0-2H5c-1.654 0-3-1.346-3-3v-9h21a1 1 0 0 0 1-1V7c0-2.757-2.243-5-5-5Zm3 6H2V7c0-1.654 1.346-3 3-3h14c1.654 0 3 1.346 3 3v1Zm-3.121 4.879-5.707 5.707A3.971 3.971 0 0 0 12 21.414V23a1 1 0 0 0 1 1h1.586a3.975 3.975 0 0 0 2.828-1.172l5.707-5.707c.566-.567.879-1.32.879-2.122s-.313-1.555-.879-2.121a3.002 3.002 0 0 0-4.242 0Zm2.828 2.828L16 21.414c-.378.378-.88.586-1.414.586H14v-.586c0-.526.214-1.042.586-1.414l5.707-5.707a1 1 0 0 1 1.414 1.414Z" fill="currentColor"/>
    </symbol>
    <symbol id="waveform" width="512" height="512" viewBox="0 0 24 24">
        <path d="M19 8v8a1 1 0 1 1-2 0V8a1 1 0 1 1 2 0Zm-5-8a1 1 0 0 0-1 1v22a1 1 0 1 0 2 0V1a1 1 0 0 0-1-1Zm8 4a1 1 0 0 0-1 1v14a1 1 0 1 0 2 0V5a1 1 0 0 0-1-1ZM10 4a1 1 0 0 0-1 1v14a1 1 0 1 0 2 0V5a1 1 0 0 0-1-1ZM6 7a1 1 0 0 0-1 1v8a1 1 0 1 0 2 0V8a1 1 0 0 0-1-1ZM2 9a1 1 0 0 0-1 1v4a1 1 0 1 0 2 0v-4a1 1 0 0 0-1-1Z" fill="currentColor"/>
    </symbol>
    <symbol id="document" width="512" height="512" viewBox="0 0 24 24">
        <path d="M17 14a1 1 0 0 1-1 1H8a1 1 0 0 1 0-2h8a1 1 0 0 1 1 1zm-4 3H8a1 1 0 0 0 0 2h5a1 1 0 0 0 0-2zm9-6.515V19a5.006 5.006 0 0 1-5 5H7a5.006 5.006 0 0 1-5-5V5a5.006 5.006 0 0 1 5-5h4.515a6.958 6.958 0 0 1 4.95 2.05l3.484 3.486A6.951 6.951 0 0 1 22 10.485zm-6.949-7.021A5.01 5.01 0 0 0 14 2.684V7a1 1 0 0 0 1 1h4.316a4.983 4.983 0 0 0-.781-1.05zM20 10.485c0-.165-.032-.323-.047-.485H15a3 3 0 0 1-3-3V2.047c-.162-.015-.321-.047-.485-.047H7a3 3 0 0 0-3 3v14a3 3 0 0 0 3 3h10a3 3 0 0 0 3-3z" fill="currentColor"/>
    </symbol>
    <symbol id="analytics" width="512" height="512" viewBox="0 0 24 24">
        <path d="M24 24H3a3 3 0 0 1-3-3V0h2v21a1 1 0 0 0 1 1h21Z" fill="currentColor"/>
        <path d="M14 11h2v9h-2zM6 11h2v9H6zM18 6h2v14h-2zM10 6h2v14h-2z" fill="currentColor"/>
    </symbol>
    <symbol id="blog" width="512" height="512" viewBox="0 0 24 24">
        <path d="M21 2H3C1.35 2 0 3.35 0 5v17h14.93l-2-2H2V9h20v5.93l2 2V5c0-1.65-1.35-3-3-3ZM2 7V5c0-.55.45-1 1-1h18c.55 0 1 .45 1 1v2H2Zm13.24 4H11v4.24l7.88 7.88c.57.57 1.32.88 2.12.88s1.55-.31 2.12-.88S24 21.8 24 21s-.31-1.55-.88-2.12L15.24 11Zm6.46 10.71c-.38.38-1.04.38-1.41 0L13 14.42v-1.41h1.41l7.29 7.29c.19.19.29.44.29.71s-.1.52-.29.71Z" fill="currentColor"/>
    </symbol>
</svg>