<svg xmlns="http://www.w3.org/2000/svg">
    <symbol id="home" width="512" height="512" viewBox="0 0 24 24">
        <path d="m23.121 9.069-7.585-7.586a5.008 5.008 0 0 0-7.072 0L.879 9.069A2.978 2.978 0 0 0 0 11.19v9.817a3 3 0 0 0 3 3h18a3 3 0 0 0 3-3V11.19a2.978 2.978 0 0 0-.879-2.121ZM15 22.007H9v-3.934a3 3 0 0 1 6 0Zm7-1a1 1 0 0 1-1 1h-4v-3.934a5 5 0 0 0-10 0v3.934H3a1 1 0 0 1-1-1V11.19a1.008 1.008 0 0 1 .293-.707L9.878 2.9a3.008 3.008 0 0 1 4.244 0l7.585 7.586a1.008 1.008 0 0 1 .293.704Z" fill="currentColor"/>
    </symbol>
    <symbol id="user" width="512" height="512" viewBox="0 0 24 24">
        <path d="M12 12a6 6 0 1 0-6-6 6.006 6.006 0 0 0 6 6Zm0-10a4 4 0 1 1-4 4 4 4 0 0 1 4-4ZM12 14a9.01 9.01 0 0 0-9 9 1 1 0 0 0 2 0 7 7 0 0 1 14 0 1 1 0 0 0 2 0 9.01 9.01 0 0 0-9-9Z" fill="currentColor"/>
    </symbol>
    <symbol id="settings" width="512" height="512" viewBox="0 0 24 24">
        <path d="M12 8a4 4 0 1 0 4 4 4 4 0 0 0-4-4Zm0 6a2 2 0 1 1 2-2 2 2 0 0 1-2 2Z" fill="currentColor"/>
        <path d="m21.294 13.9-.444-.256a9.1 9.1 0 0 0 0-3.29l.444-.256a3 3 0 1 0-3-5.2l-.445.257A8.977 8.977 0 0 0 15 3.513V3a3 3 0 0 0-6 0v.513a8.977 8.977 0 0 0-2.848 1.646L5.705 4.9a3 3 0 0 0-3 5.2l.444.256a9.1 9.1 0 0 0 0 3.29l-.444.256a3 3 0 1 0 3 5.2l.445-.257A8.977 8.977 0 0 0 9 20.487V21a3 3 0 0 0 6 0v-.513a8.977 8.977 0 0 0 2.848-1.646l.447.258a3 3 0 0 0 3-5.2Zm-2.548-3.776a7.048 7.048 0 0 1 0 3.75 1 1 0 0 0 .464 1.133l1.084.626a1 1 0 0 1-1 1.733l-1.086-.628a1 1 0 0 0-1.215.165 6.984 6.984 0 0 1-3.243 1.875 1 1 0 0 0-.751.969V21a1 1 0 0 1-2 0v-1.252a1 1 0 0 0-.751-.969A6.984 6.984 0 0 1 7.006 16.9a1 1 0 0 0-1.215-.165l-1.084.627a1 1 0 1 1-1-1.732l1.084-.626a1 1 0 0 0 .464-1.133 7.048 7.048 0 0 1 0-3.75 1 1 0 0 0-.465-1.129l-1.084-.626a1 1 0 0 1 1-1.733l1.086.628A1 1 0 0 0 7.006 7.1a6.984 6.984 0 0 1 3.243-1.875A1 1 0 0 0 11 4.252V3a1 1 0 0 1 2 0v1.252a1 1 0 0 0 .751.969A6.984 6.984 0 0 1 16.994 7.1a1 1 0 0 0 1.215.165l1.084-.627a1 1 0 1 1 1 1.732l-1.084.626a1 1 0 0 0-.463 1.129Z" fill="currentColor"/>
    </symbol>
    <symbol id="apps" width="512" height="512" viewBox="0 0 24 24">
        <path d="M11 11H0V3a3 3 0 0 1 3-3h8ZM2 9h7V2H3a1 1 0 0 0-1 1ZM24 11H13V0h8a3 3 0 0 1 3 3Zm-9-2h7V3a1 1 0 0 0-1-1h-6ZM11 24H3a3 3 0 0 1-3-3v-8h11Zm-9-9v6a1 1 0 0 0 1 1h6v-7ZM21 24h-8V13h11v8a3 3 0 0 1-3 3Zm-6-2h6a1 1 0 0 0 1-1v-6h-7Z" fill="currentColor"/>
    </symbol>
</svg>