<svg xmlns="http://www.w3.org/2000/svg">
    <symbol id="file" viewBox="0 0 80 80">
        <path fill="#fff" d="M13.5 74.5L13.5 3.5 50.793 3.5 68.5 21.207 68.5 74.5z"/>
        <path fill="currentColor" d="M50.586,4L68,21.414V74H14V4H50.586 M51,3H13v72h56V21L51,3L51,3z"/>
        <g>
            <path fill="#fff" d="M50.5 21.5L50.5 3.5 50.793 3.5 68.5 21.207 68.5 21.5z"/>
            <path fill="currentColor" d="M51,4.414L67.586,21H51V4.414 M51,3h-1v19h19v-1L51,3L51,3z"/>
        </g>
    </symbol>
    <symbol id="calendar" viewBox="0 0 24 24" fill="none" stroke="currentColor" stroke-width="1" stroke-linecap="round" stroke-linejoin="bevel">
        <rect x="3" y="4" width="18" height="18" rx="2" ry="2"/>
        <line x1="16" y1="2" x2="16" y2="6"/>
        <line x1="8" y1="2" x2="8" y2="6"/>
        <line x1="3" y1="10" x2="21" y2="10"/>
    </symbol>
    <symbol id="time" viewBox="0 0 256 256" fill="currentColor">
        <g transform="translate(1.4065934065934016 1.4065934065934016) scale(2.81 2.81)" >
            <path d="M 45 90 C 20.187 90 0 69.813 0 45 C 0 20.187 20.187 0 45 0 c 24.813 0 45 20.187 45 45 C 90 69.813 69.813 90 45 90 z M 45 6 C 23.495 6 6 23.495 6 45 s 17.495 39 39 39 s 39 -17.495 39 -39 S 66.505 6 45 6 z" transform=" matrix(1 0 0 1 0 0) " stroke-linecap="round" />
            <path d="M 70.794 42 H 48 V 19.206 c 0 -1.657 -1.343 -3 -3 -3 c -1.657 0 -3 1.343 -3 3 V 45 c 0 1.657 1.343 3 3 3 h 25.794 c 1.657 0 3 -1.343 3 -3 C 73.794 43.343 72.451 42 70.794 42 z" transform=" matrix(1 0 0 1 0 0) " stroke-linecap="round" />
        </g>
    </symbol>
    <symbol id="min_cross" viewBox="0 0 32 32" fill="currentColor">
        <path d="M23.057 7.057l-16 16c-0.52 0.52-0.52 1.365 0 1.885s1.365 0.52 1.885 0l16-16c0.52-0.52 0.52-1.365 0-1.885s-1.365-0.52-1.885 0z"/>
        <path d="M7.057 8.943l16 16c0.52 0.52 1.365 0.52 1.885 0s0.52-1.365 0-1.885l-16-16c-0.52-0.52-1.365-0.52-1.885 0s-0.52 1.365 0 1.885z"/>
    </symbol>
</svg>