<svg xmlns="http://www.w3.org/2000/svg">
    <symbol id="file" viewBox="0 0 80 80">
        <path fill="#fff" d="M13.5 74.5L13.5 3.5 50.793 3.5 68.5 21.207 68.5 74.5z"/>
        <path fill="currentColor" d="M50.586,4L68,21.414V74H14V4H50.586 M51,3H13v72h56V21L51,3L51,3z"/>
        <g>
            <path fill="#fff" d="M50.5 21.5L50.5 3.5 50.793 3.5 68.5 21.207 68.5 21.5z"/>
            <path fill="currentColor" d="M51,4.414L67.586,21H51V4.414 M51,3h-1v19h19v-1L51,3L51,3z"/>
        </g>
    </symbol>
    <symbol id="calendar" viewBox="0 0 25 25">
        <defs>
            <style>.cls-1{fill:#231f20;}</style>
        </defs>
        <g>
            <path class="cls-1" d="M22.5,3H21V2a1,1,0,0,0-1-1H19a1,1,0,0,0-1,1V3H14V2a1,1,0,0,0-1-1H12a1,1,0,0,0-1,1V3H7V2A1,1,0,0,0,6,1H5A1,1,0,0,0,4,2V3H2.5A1.5,1.5,0,0,0,1,4.5v18A1.5,1.5,0,0,0,2.5,24h20A1.5,1.5,0,0,0,24,22.5V4.5A1.5,1.5,0,0,0,22.5,3ZM19,2l1,0,0,3L19,5ZM12,2l1,0V3.44s0,0,0,.06,0,0,0,.07L13,5,12,5ZM5,2,6,2,6,5,5,5ZM2.5,4H4V5A1,1,0,0,0,5,6H6A1,1,0,0,0,7,5V4h4V5a1,1,0,0,0,1,1H13a1,1,0,0,0,1-1V4h4V5a1,1,0,0,0,1,1H20a1,1,0,0,0,1-1V4h1.5a.5.5,0,0,1,.5.5V8H2V4.5A.5.5,0,0,1,2.5,4Zm20,19H2.5a.5.5,0,0,1-.5-.5V9H23V22.5A.5.5,0,0,1,22.5,23Z"/>
        </g>
    </symbol>
</svg>